<svg xmlns="http://www.w3.org/2000/svg" xmlns:ev="http://www.w3.org/2001/xml-events" xmlns:xlink="http://www.w3.org/1999/xlink" width="100%" height="100%" fill="#fff" fill-opacity="0" baseProfile="full" version="1.1"><circle id="boundary_circle" cx="400" cy="400" r="250" fill="#fff" fill-opacity="0" stroke="#000" stroke-width="1"/><g id="rotated_triangle" stroke="red" stroke-width="4"><line x1="400" x2="523.471" y1="400" y2="328.714"/><path d="m 523.4707628942313 328.7141218059671 A 223.6067977499789 223.6067977499789 0 0,0 511.80339887498945 400.0"/><line x1="400" x2="511.803" y1="400" y2="400"/><line x1="400" x2="523.471" y1="400" y2="328.714"/><path d="m 523.4707628942313 328.7141218059671 A 223.60679774997908 223.60679774997908 0 0,1 455.90169943749476 303.1754163448146"/><line x1="400" x2="455.902" y1="400" y2="303.175"/><line x1="400" x2="400" y1="400" y2="257.428"/><path d="m 400.0000000000001 257.4282436119342 A 223.60679774997894 223.60679774997894 0 0,0 455.90169943749476 303.1754163448146"/><line x1="400" x2="455.902" y1="400" y2="303.175"/><line x1="400" x2="400" y1="400" y2="257.428"/><path d="m 399.9999999999999 257.4282436119342 A 223.60679774997894 223.60679774997894 0 0,1 344.09830056250524 303.1754163448146"/><line x1="400" x2="344.098" y1="400" y2="303.175"/><line x1="400" x2="276.529" y1="400" y2="328.714"/><path d="m 276.5292371057687 328.71412180596707 A 223.60679774997905 223.60679774997905 0 0,0 344.09830056250524 303.1754163448146"/><line x1="400" x2="344.098" y1="400" y2="303.175"/><line x1="400" x2="276.529" y1="400" y2="328.714"/><path d="m 276.52923710576874 328.7141218059671 A 223.6067977499792 223.6067977499792 0 0,1 288.1966011250106 400.0"/><line x1="400" x2="288.197" y1="400" y2="400"/><line x1="400" x2="276.529" y1="400" y2="471.286"/><path d="m 276.52923710576874 471.2858781940328 A 223.60679774997922 223.60679774997922 0 0,0 288.1966011250106 400.0"/><line x1="400" x2="288.197" y1="400" y2="400"/><line x1="400" x2="276.529" y1="400" y2="471.286"/><path d="m 276.5292371057687 471.2858781940329 A 223.60679774997922 223.60679774997922 0 0,1 344.09830056250524 496.82458365518534"/><line x1="400" x2="344.098" y1="400" y2="496.825"/><line x1="400" x2="400" y1="400" y2="542.572"/><path d="m 399.9999999999999 542.5717563880658 A 223.6067977499791 223.6067977499791 0 0,0 344.09830056250524 496.82458365518534"/><line x1="400" x2="344.098" y1="400" y2="496.825"/><line x1="400" x2="400" y1="400" y2="542.572"/><path d="m 400.0000000000001 542.5717563880658 A 223.6067977499791 223.6067977499791 0 0,1 455.90169943749476 496.82458365518534"/><line x1="400" x2="455.902" y1="400" y2="496.825"/><line x1="400" x2="523.471" y1="400" y2="471.286"/><path d="m 523.4707628942313 471.2858781940329 A 223.60679774997922 223.60679774997922 0 0,0 455.90169943749476 496.82458365518534"/><line x1="400" x2="455.902" y1="400" y2="496.825"/><line x1="400" x2="523.471" y1="400" y2="471.286"/><path d="m 523.4707628942313 471.2858781940329 A 223.6067977499791 223.6067977499791 0 0,1 511.80339887498945 400.0"/><line x1="400" x2="511.803" y1="400" y2="400"/></g><circle cx="735.41" cy="400" r="223.607" stroke="green" stroke-width="1"/><circle cx="567.705" cy="109.526" r="223.607" stroke="green" stroke-width="1"/><circle cx="567.705" cy="109.526" r="223.607" stroke="green" stroke-width="1"/><circle cx="232.295" cy="109.526" r="223.607" stroke="green" stroke-width="1"/><circle cx="232.295" cy="109.526" r="223.607" stroke="green" stroke-width="1"/><circle cx="64.59" cy="400" r="223.607" stroke="green" stroke-width="1"/><circle cx="64.59" cy="400" r="223.607" stroke="green" stroke-width="1"/><circle cx="232.295" cy="690.474" r="223.607" stroke="green" stroke-width="1"/><circle cx="232.295" cy="690.474" r="223.607" stroke="green" stroke-width="1"/><circle cx="567.705" cy="690.474" r="223.607" stroke="green" stroke-width="1"/><circle cx="567.705" cy="690.474" r="223.607" stroke="green" stroke-width="1"/><circle cx="735.41" cy="400" r="223.607" stroke="green" stroke-width="1"/></svg>